<?xml version="1.0" encoding="UTF-8"?>
<svg id="Layer_1" data-name="Layer 1" xmlns="http://www.w3.org/2000/svg" viewBox="0 0 140 140">
  <path d="m87.33,8.37c1.6-3.93,5.46-6.72,9.97-6.72,5.93,0,10.76,4.83,10.76,10.76s-4.83,10.76-10.76,10.76c-4.51,0-8.37-2.79-9.97-6.73h-9.4v21.93h19.25l8.76-7.3c-.37-1.09-.57-2.25-.57-3.46,0-5.93,4.82-10.76,10.75-10.76s10.76,4.83,10.76,10.76-4.82,10.76-10.76,10.76c-1.76,0-3.43-.43-4.91-1.19l-9.98,8.32c-.73.61-1.64.94-2.59.94h-8.62v3.55l10.62,12.63h5.51c1.6-3.94,5.47-6.72,9.97-6.72,5.94,0,10.76,4.83,10.76,10.76s-4.82,10.76-10.76,10.76c-4.5,0-8.37-2.79-9.97-6.73h-9.45l-10.66,12.71v3.48h12.6c.95,0,1.86.33,2.59.93l9.98,8.33c1.48-.76,3.15-1.19,4.91-1.19,5.94,0,10.76,4.82,10.76,10.75s-4.82,10.76-10.76,10.76-10.75-4.82-10.75-10.76c0-1.21.2-2.37.57-3.46l-8.76-7.29h-25.28v21.93h15.43c1.6-3.94,5.46-6.72,9.97-6.72,5.93,0,10.76,4.82,10.76,10.76s-4.83,10.75-10.76,10.75c-4.51,0-8.37-2.78-9.97-6.72h-15.43v7.5s.31,2.98-3.19,5.28c0,0-2.68,2.02-7.45-1.23-4.77-3.24-28.38-19.32-28.38-19.32,0,0-6.08-3.45-6.07-10.64.02-7.21,4.43-9.96,5.19-10.51.75-.56,29.36-21.63,29.36-21.63,0,0,4.06-3.74,8.54-.24,0,0,1.88.61,1.95,7.55l.05,4.28v.89h6.06l.02-4.97c0-.94.34-1.86.94-2.58l12.6-15.02-8.61-10.25c-.6-.72-.94-1.64-.93-2.59l-.02-5.03h-4.03s-14.7-2.78-31.13,2.67c-16.43,5.46-25.66,22.04-26.87,32.31,0,0-.04,1.81-2.97,1.81-2.59,0-2.66-1.35-2.66-1.35,0,0-7.02-30.17,18.51-51.88,0,0,18.57-16.13,45.12-21.58" style="fill: #fff;"/>
</svg>